<svg width="200" height="280" viewBox="0 0 200 280" xmlns="http://www.w3.org/2000/svg">
  <!-- 背景 -->
  <rect width="200" height="280" fill="#ffffff" stroke="#e5e7eb" stroke-width="1"/>
  
  <!-- 头部绿色条 -->
  <rect x="0" y="0" width="200" height="8" fill="#059669"/>
  
  <!-- 个人信息区域 -->
  <rect x="20" y="25" width="120" height="8" fill="#111827"/>
  <rect x="20" y="38" width="90" height="4" fill="#059669"/>
  
  <!-- 联系信息 -->
  <rect x="20" y="55" width="60" height="3" fill="#6b7280"/>
  <rect x="20" y="61" width="55" height="3" fill="#6b7280"/>
  <rect x="20" y="67" width="50" height="3" fill="#6b7280"/>
  
  <!-- 技术栈 -->
  <rect x="20" y="90" width="50" height="5" fill="#111827"/>
  
  <!-- 后端技术标签 -->
  <rect x="20" y="105" width="40" height="12" fill="#10b981" opacity="0.2" rx="2"/>
  <rect x="24" y="108" width="32" height="2" fill="#059669"/>
  <rect x="24" y="111" width="25" height="2" fill="#059669"/>
  
  <rect x="65" y="105" width="35" height="12" fill="#10b981" opacity="0.2" rx="2"/>
  <rect x="69" y="108" width="27" height="2" fill="#059669"/>
  <rect x="69" y="111" width="20" height="2" fill="#059669"/>
  
  <rect x="105" y="105" width="45" height="12" fill="#10b981" opacity="0.2" rx="2"/>
  <rect x="109" y="108" width="37" height="2" fill="#059669"/>
  <rect x="109" y="111" width="30" height="2" fill="#059669"/>
  
  <rect x="155" y="105" width="30" height="12" fill="#10b981" opacity="0.2" rx="2"/>
  <rect x="159" y="108" width="22" height="2" fill="#059669"/>
  <rect x="159" y="111" width="18" height="2" fill="#059669"/>
  
  <!-- 数据库技能 -->
  <rect x="20" y="125" width="35" height="12" fill="#10b981" opacity="0.2" rx="2"/>
  <rect x="24" y="128" width="27" height="2" fill="#059669"/>
  <rect x="24" y="131" width="22" height="2" fill="#059669"/>
  
  <rect x="60" y="125" width="40" height="12" fill="#10b981" opacity="0.2" rx="2"/>
  <rect x="64" y="128" width="32" height="2" fill="#059669"/>
  <rect x="64" y="131" width="25" height="2" fill="#059669"/>
  
  <!-- 工作经验 -->
  <rect x="20" y="155" width="50" height="5" fill="#111827"/>
  
  <!-- 经验条目 -->
  <rect x="20" y="170" width="130" height="3" fill="#4b5563"/>
  <rect x="155" y="170" width="25" height="3" fill="#6b7280"/>
  <rect x="20" y="177" width="150" height="2" fill="#6b7280"/>
  <rect x="20" y="182" width="140" height="2" fill="#6b7280"/>
  <rect x="20" y="187" width="145" height="2" fill="#6b7280"/>
  
  <rect x="20" y="200" width="120" height="3" fill="#4b5563"/>
  <rect x="145" y="200" width="25" height="3" fill="#6b7280"/>
  <rect x="20" y="207" width="135" height="2" fill="#6b7280"/>
  <rect x="20" y="212" width="130" height="2" fill="#6b7280"/>
  
  <!-- 项目经验 -->
  <rect x="20" y="235" width="40" height="5" fill="#111827"/>
  
  <rect x="20" y="250" width="110" height="3" fill="#4b5563"/>
  <rect x="20" y="257" width="120" height="2" fill="#6b7280"/>
  <rect x="20" y="262" width="115" height="2" fill="#6b7280"/>
  
  <!-- 服务器图标装饰 -->
  <rect x="160" y="25" width="20" height="25" fill="none" stroke="#059669" stroke-width="1" rx="2"/>
  <rect x="163" y="30" width="14" height="2" fill="#10b981"/>
  <rect x="163" y="34" width="14" height="2" fill="#10b981"/>
  <rect x="163" y="38" width="14" height="2" fill="#10b981"/>
  <rect x="163" y="42" width="14" height="2" fill="#10b981"/>
  <circle cx="166" cy="46" r="1" fill="#059669"/>
  <circle cx="170" cy="46" r="1" fill="#059669"/>
  <circle cx="174" cy="46" r="1" fill="#059669"/>
</svg>