<svg width="200" height="280" viewBox="0 0 200 280" xmlns="http://www.w3.org/2000/svg">
  <!-- 背景 -->
  <rect width="200" height="280" fill="#ffffff" stroke="#e5e7eb" stroke-width="1"/>
  
  <!-- 头部区域 -->
  <rect x="0" y="0" width="200" height="60" fill="#0ea5e9" opacity="0.1"/>
  
  <!-- 姓名和职位 -->
  <rect x="20" y="20" width="100" height="8" fill="#1e293b"/>
  <rect x="20" y="32" width="80" height="4" fill="#0ea5e9"/>
  
  <!-- 联系信息 -->
  <rect x="130" y="22" width="50" height="3" fill="#64748b"/>
  <rect x="130" y="28" width="45" height="3" fill="#64748b"/>
  <rect x="130" y="34" width="40" height="3" fill="#64748b"/>
  
  <!-- 技术栈标题 -->
  <rect x="20" y="80" width="60" height="5" fill="#1e293b"/>
  
  <!-- 技术标签 -->
  <rect x="20" y="95" width="35" height="15" fill="#06b6d4" opacity="0.2" rx="3"/>
  <rect x="25" y="99" width="25" height="2" fill="#0ea5e9"/>
  <rect x="25" y="102" width="20" height="2" fill="#0ea5e9"/>
  
  <rect x="60" y="95" width="30" height="15" fill="#06b6d4" opacity="0.2" rx="3"/>
  <rect x="65" y="99" width="20" height="2" fill="#0ea5e9"/>
  <rect x="65" y="102" width="15" height="2" fill="#0ea5e9"/>
  
  <rect x="95" y="95" width="40" height="15" fill="#06b6d4" opacity="0.2" rx="3"/>
  <rect x="100" y="99" width="30" height="2" fill="#0ea5e9"/>
  <rect x="100" y="102" width="25" height="2" fill="#0ea5e9"/>
  
  <rect x="140" y="95" width="35" height="15" fill="#06b6d4" opacity="0.2" rx="3"/>
  <rect x="145" y="99" width="25" height="2" fill="#0ea5e9"/>
  <rect x="145" y="102" width="20" height="2" fill="#0ea5e9"/>
  
  <!-- 工作经验 -->
  <rect x="20" y="130" width="50" height="5" fill="#1e293b"/>
  
  <!-- 经验条目 -->
  <rect x="20" y="145" width="120" height="3" fill="#4b5563"/>
  <rect x="150" y="145" width="30" height="3" fill="#64748b"/>
  <rect x="20" y="152" width="140" height="2" fill="#6b7280"/>
  <rect x="20" y="157" width="130" height="2" fill="#6b7280"/>
  <rect x="20" y="162" width="135" height="2" fill="#6b7280"/>
  
  <rect x="20" y="175" width="110" height="3" fill="#4b5563"/>
  <rect x="140" y="175" width="30" height="3" fill="#64748b"/>
  <rect x="20" y="182" width="125" height="2" fill="#6b7280"/>
  <rect x="20" y="187" width="120" height="2" fill="#6b7280"/>
  
  <!-- 项目经验 -->
  <rect x="20" y="210" width="40" height="5" fill="#1e293b"/>
  
  <rect x="20" y="225" width="100" height="3" fill="#4b5563"/>
  <rect x="20" y="232" width="110" height="2" fill="#6b7280"/>
  <rect x="20" y="237" width="105" height="2" fill="#6b7280"/>
  
  <rect x="20" y="250" width="95" height="3" fill="#4b5563"/>
  <rect x="20" y="257" width="100" height="2" fill="#6b7280"/>
  <rect x="20" y="262" width="90" height="2" fill="#6b7280"/>
  
  <!-- 代码图标装饰 -->
  <rect x="160" y="130" width="20" height="15" fill="none" stroke="#0ea5e9" stroke-width="1" rx="2"/>
  <rect x="163" y="133" width="3" height="3" fill="#0ea5e9"/>
  <rect x="167" y="133" width="3" height="3" fill="#0ea5e9"/>
  <rect x="171" y="133" width="3" height="3" fill="#0ea5e9"/>
  <rect x="163" y="137" width="6" height="2" fill="#0ea5e9"/>
  <rect x="163" y="140" width="8" height="2" fill="#0ea5e9"/>
</svg>