<svg width="300" height="400" viewBox="0 0 300 400" xmlns="http://www.w3.org/2000/svg">
  <!-- 背景 -->
  <rect width="300" height="400" fill="#ffffff" stroke="#e5e7eb" stroke-width="1"/>
  
  <!-- 顶部玫瑰色装饰条 -->
  <rect x="0" y="0" width="300" height="8" fill="#f43f5e"/>
  
  <!-- 姓名区域 -->
  <rect x="30" y="30" width="150" height="14" fill="#1f2937" rx="2"/>
  <rect x="30" y="50" width="100" height="8" fill="#f43f5e" rx="2"/>
  
  <!-- 联系信息 -->
  <rect x="30" y="75" width="90" height="5" fill="#6b7280" rx="1"/>
  <rect x="130" y="75" width="85" height="5" fill="#6b7280" rx="1"/>
  <rect x="225" y="75" width="45" height="5" fill="#6b7280" rx="1"/>
  
  <!-- 分割线 -->
  <rect x="30" y="95" width="240" height="1" fill="#f43f5e" opacity="0.3"/>
  
  <!-- 个人简介标题 -->
  <rect x="30" y="110" width="80" height="8" fill="#f43f5e" rx="2"/>
  
  <!-- 个人简介内容 -->
  <rect x="30" y="130" width="240" height="4" fill="#1f2937" rx="1"/>
  <rect x="30" y="140" width="220" height="4" fill="#1f2937" rx="1"/>
  <rect x="30" y="150" width="200" height="4" fill="#1f2937" rx="1"/>
  
  <!-- 工作经历标题 -->
  <rect x="30" y="175" width="70" height="8" fill="#f43f5e" rx="2"/>
  
  <!-- 工作经历项目1 -->
  <rect x="30" y="195" width="140" height="6" fill="#1f2937" rx="1"/>
  <rect x="180" y="195" width="60" height="5" fill="#9ca3af" rx="1"/>
  <rect x="30" y="207" width="100" height="4" fill="#6b7280" rx="1"/>
  <rect x="30" y="217" width="200" height="4" fill="#6b7280" rx="1"/>
  <rect x="30" y="227" width="180" height="4" fill="#6b7280" rx="1"/>
  <rect x="30" y="237" width="160" height="4" fill="#6b7280" rx="1"/>
  
  <!-- 工作经历项目2 -->
  <rect x="30" y="255" width="130" height="6" fill="#1f2937" rx="1"/>
  <rect x="170" y="255" width="55" height="5" fill="#9ca3af" rx="1"/>
  <rect x="30" y="267" width="90" height="4" fill="#6b7280" rx="1"/>
  <rect x="30" y="277" width="190" height="4" fill="#6b7280" rx="1"/>
  <rect x="30" y="287" width="170" height="4" fill="#6b7280" rx="1"/>
  
  <!-- 教育背景标题 -->
  <rect x="30" y="310" width="60" height="8" fill="#f43f5e" rx="2"/>
  
  <!-- 教育背景内容 -->
  <rect x="30" y="330" width="140" height="6" fill="#1f2937" rx="1"/>
  <rect x="180" y="330" width="50" height="5" fill="#9ca3af" rx="1"/>
  <rect x="30" y="342" width="100" height="4" fill="#6b7280" rx="1"/>
  <rect x="30" y="352" width="120" height="4" fill="#6b7280" rx="1"/>
  
  <!-- 技能标题 -->
  <rect x="30" y="375" width="40" height="8" fill="#f43f5e" rx="2"/>
  
  <!-- 技能标签 -->
  <rect x="80" y="375" width="45" height="6" fill="#f43f5e" opacity="0.1" rx="3"/>
  <rect x="85" y="377" width="35" height="2" fill="#f43f5e" rx="1"/>
  
  <rect x="135" y="375" width="50" height="6" fill="#f43f5e" opacity="0.1" rx="3"/>
  <rect x="140" y="377" width="40" height="2" fill="#f43f5e" rx="1"/>
  
  <rect x="195" y="375" width="55" height="6" fill="#f43f5e" opacity="0.1" rx="3"/>
  <rect x="200" y="377" width="45" height="2" fill="#f43f5e" rx="1"/>
  
  <!-- 底部装饰 -->
  <rect x="0" y="392" width="300" height="8" fill="#f43f5e" opacity="0.1"/>
</svg>