<svg width="300" height="400" viewBox="0 0 300 400" xmlns="http://www.w3.org/2000/svg">
  <!-- 背景 -->
  <rect width="300" height="400" fill="#ffffff" stroke="#e5e7eb" stroke-width="1"/>
  
  <!-- 左侧橙色边栏 -->
  <rect x="0" y="0" width="80" height="400" fill="#f97316"/>
  
  <!-- 头像区域 -->
  <circle cx="40" cy="50" r="20" fill="#ffffff" opacity="0.9"/>
  
  <!-- 联系信息 -->
  <rect x="10" y="90" width="60" height="4" fill="#ffffff" opacity="0.8" rx="1"/>
  <rect x="10" y="100" width="55" height="4" fill="#ffffff" opacity="0.8" rx="1"/>
  <rect x="10" y="110" width="50" height="4" fill="#ffffff" opacity="0.8" rx="1"/>
  <rect x="10" y="120" width="58" height="4" fill="#ffffff" opacity="0.8" rx="1"/>
  
  <!-- 技能标题 -->
  <rect x="10" y="145" width="35" height="6" fill="#ffffff" rx="1"/>
  
  <!-- 技能进度条 -->
  <rect x="10" y="160" width="60" height="3" fill="#ffffff" opacity="0.3" rx="1"/>
  <rect x="10" y="160" width="45" height="3" fill="#ffffff" rx="1"/>
  
  <rect x="10" y="170" width="60" height="3" fill="#ffffff" opacity="0.3" rx="1"/>
  <rect x="10" y="170" width="50" height="3" fill="#ffffff" rx="1"/>
  
  <rect x="10" y="180" width="60" height="3" fill="#ffffff" opacity="0.3" rx="1"/>
  <rect x="10" y="180" width="40" height="3" fill="#ffffff" rx="1"/>
  
  <!-- 语言标题 -->
  <rect x="10" y="205" width="30" height="6" fill="#ffffff" rx="1"/>
  
  <!-- 语言列表 */
  <rect x="10" y="220" width="25" height="4" fill="#ffffff" opacity="0.8" rx="1"/>
  <rect x="10" y="230" width="30" height="4" fill="#ffffff" opacity="0.8" rx="1"/>
  <rect x="10" y="240" width="35" height="4" fill="#ffffff" opacity="0.8" rx="1"/>
  
  <!-- 证书标题 -->
  <rect x="10" y="265" width="30" height="6" fill="#ffffff" rx="1"/>
  
  <!-- 证书列表 -->
  <rect x="10" y="280" width="40" height="4" fill="#ffffff" opacity="0.8" rx="1"/>
  <rect x="10" y="290" width="35" height="4" fill="#ffffff" opacity="0.8" rx="1"/>
  
  <!-- 主要内容区域 -->
  <!-- 姓名 -->
  <rect x="100" y="30" width="140" height="14" fill="#1f2937" rx="2"/>
  <rect x="100" y="50" width="90" height="8" fill="#f97316" rx="2"/>
  
  <!-- 个人简介标题 -->
  <rect x="100" y="80" width="80" height="8" fill="#f97316" rx="2"/>
  
  <!-- 个人简介内容 -->
  <rect x="100" y="100" width="180" height="4" fill="#1f2937" rx="1"/>
  <rect x="100" y="110" width="170" height="4" fill="#1f2937" rx="1"/>
  <rect x="100" y="120" width="160" height="4" fill="#1f2937" rx="1"/>
  
  <!-- 工作经历标题 -->
  <rect x="100" y="145" width="70" height="8" fill="#f97316" rx="2"/>
  
  <!-- 工作经历项目1 -->
  <rect x="100" y="165" width="120" height="6" fill="#1f2937" rx="1"/>
  <rect x="100" y="177" width="80" height="4" fill="#6b7280" rx="1"/>
  <rect x="100" y="187" width="160" height="4" fill="#6b7280" rx="1"/>
  <rect x="100" y="197" width="150" height="4" fill="#6b7280" rx="1"/>
  <rect x="100" y="207" width="140" height="4" fill="#6b7280" rx="1"/>
  
  <!-- 工作经历项目2 -->
  <rect x="100" y="225" width="110" height="6" fill="#1f2937" rx="1"/>
  <rect x="100" y="237" width="75" height="4" fill="#6b7280" rx="1"/>
  <rect x="100" y="247" width="155" height="4" fill="#6b7280" rx="1"/>
  <rect x="100" y="257" width="145" height="4" fill="#6b7280" rx="1"/>
  
  <!-- 项目经验标题 -->
  <rect x="100" y="280" width="70" height="8" fill="#f97316" rx="2"/>
  
  <!-- 项目经验内容 -->
  <rect x="100" y="300" width="130" height="6" fill="#1f2937" rx="1"/>
  <rect x="100" y="312" width="170" height="4" fill="#6b7280" rx="1"/>
  <rect x="100" y="322" width="160" height="4" fill="#6b7280" rx="1"/>
  
  <!-- 教育背景标题 -->
  <rect x="100" y="345" width="60" height="8" fill="#f97316" rx="2"/>
  
  <!-- 教育背景内容 -->
  <rect x="100" y="365" width="120" height="6" fill="#1f2937" rx="1"/>
  <rect x="100" y="377" width="90" height="4" fill="#6b7280" rx="1"/>
  
  <!-- 装饰元素 -->
  <circle cx="90" cy="100" r="2" fill="#f97316" opacity="0.3"/>
  <circle cx="90" cy="165" r="2" fill="#f97316" opacity="0.3"/>
  <circle cx="90" cy="300" r="2" fill="#f97316" opacity="0.3"/>
  <circle cx="90" cy="365" r="2" fill="#f97316" opacity="0.3"/>
</svg>