<svg width="300" height="400" viewBox="0 0 300 400" xmlns="http://www.w3.org/2000/svg">
  <!-- 背景 -->
  <rect width="300" height="400" fill="#ffffff" stroke="#e5e7eb" stroke-width="1"/>
  
  <!-- 姓名 (居中) -->
  <rect x="90" y="25" width="120" height="14" fill="#1f2937" rx="2"/>
  
  <!-- 联系信息 (居中) -->
  <rect x="60" y="48" width="180" height="4" fill="#6b7280" rx="1"/>
  
  <!-- 分隔线 -->
  <line x1="25" y1="65" x2="275" y2="65" stroke="#1f2937" stroke-width="1"/>
  
  <!-- 教育背景标题 -->
  <rect x="25" y="80" width="60" height="8" fill="#1f2937" rx="1"/>
  <line x1="25" y1="95" x2="275" y2="95" stroke="#e5e7eb" stroke-width="1"/>
  
  <!-- 教育背景内容 -->
  <rect x="25" y="105" width="150" height="6" fill="#1f2937" rx="1"/>
  <rect x="200" y="105" width="50" height="5" fill="#6b7280" rx="1"/>
  <rect x="25" y="117" width="120" height="4" fill="#6b7280" rx="1"/>
  <rect x="25" y="127" width="200" height="4" fill="#6b7280" rx="1"/>
  
  <!-- 研究经历标题 -->
  <rect x="25" y="150" width="70" height="8" fill="#1f2937" rx="1"/>
  <line x1="25" y1="165" x2="275" y2="165" stroke="#e5e7eb" stroke-width="1"/>
  
  <!-- 研究经历内容 -->
  <rect x="25" y="175" width="180" height="6" fill="#1f2937" rx="1"/>
  <rect x="220" y="175" width="40" height="5" fill="#6b7280" rx="1"/>
  <rect x="25" y="187" width="230" height="4" fill="#6b7280" rx="1"/>
  <rect x="25" y="197" width="200" height="4" fill="#6b7280" rx="1"/>
  <rect x="25" y="207" width="220" height="4" fill="#6b7280" rx="1"/>
  
  <!-- 发表论文标题 -->
  <rect x="25" y="230" width="60" height="8" fill="#1f2937" rx="1"/>
  <line x1="25" y1="245" x2="275" y2="245" stroke="#e5e7eb" stroke-width="1"/>
  
  <!-- 论文列表 -->
  <circle cx="30" cy="260" r="2" fill="#374151"/>
  <rect x="40" y="255" width="220" height="4" fill="#6b7280" rx="1"/>
  <rect x="40" y="265" width="180" height="4" fill="#6b7280" rx="1"/>
  
  <circle cx="30" cy="285" r="2" fill="#374151"/>
  <rect x="40" y="280" width="200" height="4" fill="#6b7280" rx="1"/>
  <rect x="40" y="290" width="190" height="4" fill="#6b7280" rx="1"/>
  
  <!-- 技能标题 -->
  <rect x="25" y="315" width="40" height="8" fill="#1f2937" rx="1"/>
  <line x1="25" y1="330" x2="275" y2="330" stroke="#e5e7eb" stroke-width="1"/>
  
  <!-- 技能内容 -->
  <rect x="25" y="340" width="230" height="4" fill="#6b7280" rx="1"/>
  <rect x="25" y="350" width="200" height="4" fill="#6b7280" rx="1"/>
  <rect x="25" y="360" width="180" height="4" fill="#6b7280" rx="1"/>
</svg>