<svg width="200" height="280" viewBox="0 0 200 280" xmlns="http://www.w3.org/2000/svg">
  <!-- 背景 -->
  <rect width="200" height="280" fill="#ffffff" stroke="#e5e7eb" stroke-width="1"/>
  
  <!-- 左侧栏 -->
  <rect x="0" y="0" width="60" height="280" fill="#ea580c" opacity="0.1"/>
  
  <!-- 头像区域 -->
  <circle cx="30" cy="35" r="18" fill="#ea580c" opacity="0.3"/>
  <circle cx="30" cy="35" r="12" fill="#ea580c"/>
  
  <!-- 个人信息 -->
  <rect x="10" y="60" width="40" height="4" fill="#1c1917"/>
  <rect x="10" y="68" width="30" height="3" fill="#78716c"/>
  <rect x="10" y="75" width="35" height="3" fill="#78716c"/>
  
  <!-- 联系方式 -->
  <rect x="10" y="95" width="25" height="4" fill="#1c1917"/>
  <rect x="10" y="105" width="35" height="2" fill="#78716c"/>
  <rect x="10" y="110" width="30" height="2" fill="#78716c"/>
  <rect x="10" y="115" width="32" height="2" fill="#78716c"/>
  
  <!-- 技能 -->
  <rect x="10" y="135" width="20" height="4" fill="#1c1917"/>
  <rect x="10" y="145" width="40" height="2" fill="#fb923c"/>
  <rect x="10" y="150" width="35" height="2" fill="#fb923c"/>
  <rect x="10" y="155" width="38" height="2" fill="#fb923c"/>
  <rect x="10" y="160" width="30" height="2" fill="#fb923c"/>
  
  <!-- 证书 -->
  <rect x="10" y="180" width="20" height="4" fill="#1c1917"/>
  <rect x="10" y="190" width="35" height="2" fill="#78716c"/>
  <rect x="10" y="195" width="30" height="2" fill="#78716c"/>
  
  <!-- 右侧主要内容 -->
  <!-- 姓名和职位 -->
  <rect x="70" y="25" width="90" height="8" fill="#1c1917"/>
  <rect x="70" y="38" width="70" height="4" fill="#ea580c"/>
  
  <!-- 工作经验 -->
  <rect x="70" y="65" width="50" height="5" fill="#1c1917"/>
  
  <!-- 经验条目1 -->
  <rect x="70" y="80" width="100" height="3" fill="#4b5563"/>
  <rect x="70" y="87" width="90" height="2" fill="#78716c"/>
  <rect x="70" y="92" width="95" height="2" fill="#78716c"/>
  <rect x="70" y="97" width="85" height="2" fill="#78716c"/>
  
  <!-- 数据成果展示 -->
  <rect x="70" y="110" width="80" height="12" fill="#fb923c" opacity="0.2" rx="2"/>
  <rect x="75" y="114" width="15" height="4" fill="#ea580c"/>
  <rect x="92" y="114" width="20" height="2" fill="#ea580c"/>
  <rect x="92" y="117" width="15" height="2" fill="#ea580c"/>
  
  <rect x="120" y="110" width="70" height="12" fill="#fb923c" opacity="0.2" rx="2"/>
  <rect x="125" y="114" width="12" height="4" fill="#ea580c"/>
  <rect x="139" y="114" width="18" height="2" fill="#ea580c"/>
  <rect x="139" y="117" width="12" height="2" fill="#ea580c"/>
  
  <!-- 经验条目2 -->
  <rect x="70" y="135" width="95" height="3" fill="#4b5563"/>
  <rect x="70" y="142" width="85" height="2" fill="#78716c"/>
  <rect x="70" y="147" width="90" height="2" fill="#78716c"/>
  
  <!-- 项目经验 -->
  <rect x="70" y="165" width="40" height="5" fill="#1c1917"/>
  
  <rect x="70" y="180" width="100" height="3" fill="#4b5563"/>
  <rect x="70" y="187" width="80" height="2" fill="#78716c"/>
  <rect x="70" y="192" width="85" height="2" fill="#78716c"/>
  
  <rect x="70" y="205" width="95" height="3" fill="#4b5563"/>
  <rect x="70" y="212" width="75" height="2" fill="#78716c"/>
  <rect x="70" y="217" width="80" height="2" fill="#78716c"/>
  
  <!-- 教育背景 -->
  <rect x="70" y="235" width="40" height="5" fill="#1c1917"/>
  <rect x="70" y="250" width="85" height="3" fill="#4b5563"/>
  <rect x="70" y="257" width="70" height="2" fill="#78716c"/>
  
  <!-- 图表装饰 -->
  <rect x="160" y="60" width="25" height="20" fill="none" stroke="#ea580c" stroke-width="1"/>
  <rect x="163" y="75" width="3" height="3" fill="#fb923c"/>
  <rect x="167" y="72" width="3" height="6" fill="#fb923c"/>
  <rect x="171" y="68" width="3" height="10" fill="#fb923c"/>
  <rect x="175" y="65" width="3" height="13" fill="#fb923c"/>
  <rect x="179" y="70" width="3" height="8" fill="#fb923c"/>
</svg>