<svg width="300" height="400" viewBox="0 0 300 400" xmlns="http://www.w3.org/2000/svg">
  <!-- 背景 -->
  <rect width="300" height="400" fill="#ffffff" stroke="#e5e7eb" stroke-width="1"/>
  
  <!-- 顶部蓝色横条 -->
  <rect x="0" y="0" width="300" height="80" fill="#3b82f6"/>
  
  <!-- 姓名 -->
  <rect x="30" y="25" width="140" height="14" fill="#ffffff" rx="2"/>
  <rect x="30" y="45" width="100" height="8" fill="#ffffff" opacity="0.8" rx="2"/>
  
  <!-- 联系信息 -->
  <rect x="200" y="25" width="80" height="6" fill="#ffffff" opacity="0.9" rx="1"/>
  <rect x="200" y="35" width="70" height="6" fill="#ffffff" opacity="0.9" rx="1"/>
  <rect x="200" y="45" width="75" height="6" fill="#ffffff" opacity="0.9" rx="1"/>
  <rect x="200" y="55" width="65" height="6" fill="#ffffff" opacity="0.9" rx="1"/>
  
  <!-- 个人简介标题 -->
  <rect x="30" y="100" width="60" height="8" fill="#3b82f6" rx="2"/>
  
  <!-- 个人简介内容 -->
  <rect x="30" y="120" width="240" height="4" fill="#1f2937" rx="1"/>
  <rect x="30" y="130" width="220" height="4" fill="#1f2937" rx="1"/>
  <rect x="30" y="140" width="200" height="4" fill="#1f2937" rx="1"/>
  
  <!-- 工作经历标题 -->
  <rect x="30" y="165" width="70" height="8" fill="#3b82f6" rx="2"/>
  
  <!-- 工作经历内容 -->
  <rect x="30" y="185" width="160" height="6" fill="#1f2937" rx="1"/>
  <rect x="30" y="197" width="120" height="4" fill="#6b7280" rx="1"/>
  <rect x="30" y="207" width="200" height="4" fill="#6b7280" rx="1"/>
  <rect x="30" y="217" width="180" height="4" fill="#6b7280" rx="1"/>
  <rect x="30" y="227" width="150" height="4" fill="#6b7280" rx="1"/>
  
  <!-- 第二个工作经历 -->
  <rect x="30" y="245" width="150" height="6" fill="#1f2937" rx="1"/>
  <rect x="30" y="257" width="110" height="4" fill="#6b7280" rx="1"/>
  <rect x="30" y="267" width="190" height="4" fill="#6b7280" rx="1"/>
  <rect x="30" y="277" width="170" height="4" fill="#6b7280" rx="1"/>
  
  <!-- 教育背景标题 -->
  <rect x="30" y="300" width="60" height="8" fill="#3b82f6" rx="2"/>
  
  <!-- 教育背景内容 -->
  <rect x="30" y="320" width="140" height="6" fill="#1f2937" rx="1"/>
  <rect x="30" y="332" width="100" height="4" fill="#6b7280" rx="1"/>
  <rect x="30" y="342" width="120" height="4" fill="#6b7280" rx="1"/>
  
  <!-- 技能标题 -->
  <rect x="30" y="365" width="40" height="8" fill="#3b82f6" rx="2"/>
  
  <!-- 技能内容 -->
  <rect x="80" y="365" width="50" height="6" fill="#1f2937" rx="1"/>
  <rect x="140" y="365" width="45" height="6" fill="#1f2937" rx="1"/>
  <rect x="195" y="365" width="55" height="6" fill="#1f2937" rx="1"/>
</svg>