<svg width="300" height="400" viewBox="0 0 300 400" xmlns="http://www.w3.org/2000/svg">
  <!-- 背景 -->
  <rect width="300" height="400" fill="#ffffff" stroke="#e5e7eb" stroke-width="1"/>
  
  <!-- 左侧深蓝色侧边栏 -->
  <rect x="0" y="0" width="90" height="400" fill="#1e3a5f"/>
  
  <!-- 头像区域 -->
  <circle cx="45" cy="50" r="25" fill="#ffffff" opacity="0.9"/>
  
  <!-- 姓名 (侧边栏) -->
  <rect x="15" y="90" width="60" height="8" fill="#ffffff" rx="2"/>
  <rect x="20" y="104" width="50" height="5" fill="#64748b" rx="1"/>
  
  <!-- 联系信息 (侧边栏) -->
  <rect x="15" y="130" width="55" height="4" fill="#ffffff" opacity="0.8" rx="1"/>
  <rect x="15" y="140" width="50" height="4" fill="#ffffff" opacity="0.8" rx="1"/>
  <rect x="15" y="150" width="60" height="4" fill="#ffffff" opacity="0.8" rx="1"/>
  
  <!-- 技能标题 (侧边栏) -->
  <rect x="15" y="180" width="35" height="6" fill="#3b82f6" rx="1"/>
  
  <!-- 技能列表 (侧边栏) -->
  <rect x="15" y="195" width="50" height="3" fill="#ffffff" opacity="0.7" rx="1"/>
  <rect x="15" y="205" width="45" height="3" fill="#ffffff" opacity="0.7" rx="1"/>
  <rect x="15" y="215" width="55" height="3" fill="#ffffff" opacity="0.7" rx="1"/>
  <rect x="15" y="225" width="40" height="3" fill="#ffffff" opacity="0.7" rx="1"/>
  
  <!-- 右侧内容区 -->
  <!-- 工作经历标题 -->
  <rect x="105" y="30" width="70" height="8" fill="#1e3a5f" rx="2"/>
  
  <!-- 工作经历内容 -->
  <rect x="105" y="50" width="160" height="6" fill="#1f2937" rx="1"/>
  <rect x="105" y="62" width="120" height="4" fill="#64748b" rx="1"/>
  <rect x="105" y="72" width="170" height="4" fill="#64748b" rx="1"/>
  <rect x="105" y="82" width="140" height="4" fill="#64748b" rx="1"/>
  
  <!-- 第二个工作经历 -->
  <rect x="105" y="105" width="150" height="6" fill="#1f2937" rx="1"/>
  <rect x="105" y="117" width="110" height="4" fill="#64748b" rx="1"/>
  <rect x="105" y="127" width="160" height="4" fill="#64748b" rx="1"/>
  
  <!-- 教育背景标题 -->
  <rect x="105" y="155" width="60" height="8" fill="#1e3a5f" rx="2"/>
  
  <!-- 教育背景内容 -->
  <rect x="105" y="175" width="140" height="6" fill="#1f2937" rx="1"/>
  <rect x="105" y="187" width="100" height="4" fill="#64748b" rx="1"/>
  <rect x="105" y="197" width="120" height="4" fill="#64748b" rx="1"/>
  
  <!-- 项目经验标题 -->
  <rect x="105" y="225" width="60" height="8" fill="#1e3a5f" rx="2"/>
  
  <!-- 项目经验内容 -->
  <rect x="105" y="245" width="150" height="6" fill="#1f2937" rx="1"/>
  <rect x="105" y="257" width="170" height="4" fill="#64748b" rx="1"/>
  <rect x="105" y="267" width="140" height="4" fill="#64748b" rx="1"/>
  
  <!-- 第二个项目 -->
  <rect x="105" y="290" width="130" height="6" fill="#1f2937" rx="1"/>
  <rect x="105" y="302" width="160" height="4" fill="#64748b" rx="1"/>
  <rect x="105" y="312" width="150" height="4" fill="#64748b" rx="1"/>
</svg>