<svg width="300" height="400" viewBox="0 0 300 400" xmlns="http://www.w3.org/2000/svg">
  <!-- 背景 -->
  <rect width="300" height="400" fill="#ffffff" stroke="#e5e7eb" stroke-width="1"/>
  
  <!-- 左侧栏 -->
  <!-- 大号姓名 -->
  <rect x="20" y="25" width="80" height="20" fill="#000000" rx="2"/>
  <rect x="20" y="50" width="60" height="6" fill="#666666" rx="1"/>
  
  <!-- 头像 -->
  <rect x="20" y="75" width="80" height="80" fill="#f3f4f6" rx="4"/>
  <circle cx="60" cy="115" r="30" fill="#e5e7eb"/>
  
  <!-- 联系信息 -->
  <rect x="20" y="170" width="50" height="6" fill="#ff4081" rx="1"/>
  <rect x="20" y="185" width="70" height="4" fill="#666666" rx="1"/>
  <rect x="20" y="195" width="65" height="4" fill="#666666" rx="1"/>
  <rect x="20" y="205" width="75" height="4" fill="#666666" rx="1"/>
  
  <!-- 技能 -->
  <rect x="20" y="230" width="35" height="6" fill="#ff4081" rx="1"/>
  <rect x="20" y="245" width="60" height="4" fill="#666666" rx="1"/>
  <rect x="20" y="255" width="55" height="4" fill="#666666" rx="1"/>
  <rect x="20" y="265" width="65" height="4" fill="#666666" rx="1"/>
  <rect x="20" y="275" width="50" height="4" fill="#666666" rx="1"/>
  
  <!-- 右侧内容区 -->
  <!-- 个人简介 -->
  <rect x="120" y="25" width="50" height="8" fill="#000000" rx="1"/>
  <rect x="120" y="42" width="160" height="4" fill="#666666" rx="1"/>
  <rect x="120" y="52" width="150" height="4" fill="#666666" rx="1"/>
  <rect x="120" y="62" width="155" height="4" fill="#666666" rx="1"/>
  
  <!-- 工作经历 -->
  <rect x="120" y="85" width="60" height="8" fill="#000000" rx="1"/>
  
  <rect x="120" y="102" width="140" height="6" fill="#000000" rx="1"/>
  <rect x="120" y="114" width="100" height="4" fill="#ff4081" rx="1"/>
  <rect x="120" y="124" width="155" height="4" fill="#666666" rx="1"/>
  <rect x="120" y="134" width="145" height="4" fill="#666666" rx="1"/>
  
  <rect x="120" y="155" width="130" height="6" fill="#000000" rx="1"/>
  <rect x="120" y="167" width="90" height="4" fill="#ff4081" rx="1"/>
  <rect x="120" y="177" width="150" height="4" fill="#666666" rx="1"/>
  <rect x="120" y="187" width="140" height="4" fill="#666666" rx="1"/>
  
  <!-- 项目经验 -->
  <rect x="120" y="210" width="60" height="8" fill="#000000" rx="1"/>
  
  <rect x="120" y="227" width="120" height="6" fill="#000000" rx="1"/>
  <rect x="120" y="239" width="155" height="4" fill="#666666" rx="1"/>
  <rect x="120" y="249" width="145" height="4" fill="#666666" rx="1"/>
  
  <!-- 教育背景 -->
  <rect x="120" y="275" width="60" height="8" fill="#000000" rx="1"/>
  
  <rect x="120" y="292" width="140" height="6" fill="#000000" rx="1"/>
  <rect x="120" y="304" width="100" height="4" fill="#666666" rx="1"/>
  <rect x="120" y="314" width="120" height="4" fill="#666666" rx="1"/>
</svg>